# xmcd
#
# Track frame offsets: 
#        150
#        20174
#        32982
#        55807
#        71136
#        85476
#        105863
#        122537
#        130413
#        151545
#        173799
#        189421
#        209564
#        223472
#
# Disc length: 3174 seconds
#
# Revision: 0
# Processed by: cddbd v1.5.2PL0 Copyright (c) Steve Scherf et al.
# Submitted via: ExactAudioCopy v1.3
#
DISCID=cb0c640e
DTITLE=Eric Lindell - City Sessions
DYEAR=2013
DGENRE=Contemporary Blues, Blues Rock
TTITLE0=Give It Time
TTITLE1=Casanova
TTITLE2=Sunny Daze
TTITLE3=See Me Through
TTITLE4=Feel Like I Do
TTITLE5=It Won't Be Long
TTITLE6=Two-Bit Town
TTITLE7=Lazy Days
TTITLE8=Uncle John
TTITLE9=Let Me Know
TTITLE10=Should Have Known
TTITLE11=All Alone
TTITLE12=Sad But True
TTITLE13=Lady Jane
EXTD=
EXTT0=
EXTT1=
EXTT2=
EXTT3=
EXTT4=
EXTT5=
EXTT6=
EXTT7=
EXTT8=
EXTT9=
EXTT10=
EXTT11=
EXTT12=
EXTT13=
PLAYORDER=
